<svg width="1440" height="1024" viewBox="0 0 1440 1024" fill="none" xmlns="http://www.w3.org/2000/svg">
<g filter="url(#filter0_d)">
<path fill-rule="evenodd" clip-rule="evenodd" d="M1440 191.396C1422.33 198.648 1410.11 223.027 1408.16 273.569C1400.16 480.569 1248.66 560.569 813.158 619.069C512.804 659.415 469.575 877.066 490.488 1024H1440V191.396Z" fill="#00CEA9"/>
<path d="M1408.16 273.569L1408.66 273.588L1408.66 273.588L1408.16 273.569ZM1440 191.396H1440.5V190.651L1439.81 190.934L1440 191.396ZM813.158 619.069L813.224 619.565L813.224 619.565L813.158 619.069ZM490.488 1024L489.993 1024.07L490.054 1024.5H490.488V1024ZM1440 1024V1024.5H1440.5V1024H1440ZM1408.66 273.588C1409.63 248.347 1413.17 229.683 1418.65 216.44C1424.12 203.203 1431.51 195.42 1440.19 191.859L1439.81 190.934C1430.82 194.625 1423.26 202.656 1417.72 216.058C1412.18 229.453 1408.64 248.249 1407.66 273.55L1408.66 273.588ZM813.224 619.565C1030.97 590.315 1177.81 555.682 1271.22 502.441C1317.93 475.813 1351.3 444.522 1373.49 406.909C1395.67 369.297 1406.66 325.399 1408.66 273.588L1407.66 273.55C1405.66 325.24 1394.71 368.966 1372.63 406.401C1350.55 443.835 1317.32 475.012 1270.72 501.572C1177.5 554.707 1030.84 589.323 813.091 618.574L813.224 619.565ZM490.983 1023.93C480.536 950.532 486.118 859.511 531.779 781.817C577.426 704.148 663.174 639.721 813.224 619.565L813.091 618.574C662.787 638.764 576.744 703.335 530.917 781.311C485.104 859.263 479.527 950.534 489.993 1024.07L490.983 1023.93ZM1440 1023.5H490.488V1024.5H1440V1023.5ZM1440.5 1024V191.396H1439.5V1024H1440.5Z" fill="#00FFE0"/>
</g>
<path fill-rule="evenodd" clip-rule="evenodd" d="M1440 191.396C1422.33 198.648 1410.11 223.027 1408.16 273.569C1400.16 480.569 1248.66 560.569 813.158 619.069C512.804 659.415 469.575 877.066 490.488 1024H1440V191.396Z" fill="#00B686"/>
<path fill-rule="evenodd" clip-rule="evenodd" d="M0 247.839C63.7672 234.239 137.048 222.187 220.842 210.931C401.294 186.691 488.935 98.4522 525.615 0H0V247.839Z" fill="#00B686"/>
<path fill-rule="evenodd" clip-rule="evenodd" d="M1440 222.368C1431.09 235.513 1425.29 257.515 1424 291C1416 498 1264.5 578 829 636.5C540.315 675.279 489.164 877.853 504.194 1024H1440V222.368Z" fill="#1DE9B6"/>
<path fill-rule="evenodd" clip-rule="evenodd" d="M0 227.1C59.9857 214.841 128.061 203.835 205 193.5C374.729 170.701 462.349 91.2817 502.685 0H0V227.1Z" fill="#00FFD1"/>
<defs>
<filter id="filter0_d" x="481.5" y="190.651" width="963" height="841.849" filterUnits="userSpaceOnUse" color-interpolation-filters="sRGB">
<feFlood flood-opacity="0" result="BackgroundImageFix"/>
<feColorMatrix in="SourceAlpha" type="matrix" values="0 0 0 0 0 0 0 0 0 0 0 0 0 0 0 0 0 0 127 0"/>
<feOffset dy="4"/>
<feGaussianBlur stdDeviation="2"/>
<feColorMatrix type="matrix" values="0 0 0 0 0 0 0 0 0 0 0 0 0 0 0 0 0 0 0.25 0"/>
<feBlend mode="normal" in2="BackgroundImageFix" result="effect1_dropShadow"/>
<feBlend mode="normal" in="SourceGraphic" in2="effect1_dropShadow" result="shape"/>
</filter>
</defs>
</svg>
