<svg width="1440" height="1024" viewBox="0 0 1440 1024" fill="none" xmlns="http://www.w3.org/2000/svg">
<path d="M526.207 532.594C391.73 423.406 35.8709 527.598 -125.249 593.343C-87.9444 773.873 -13.3449 1137.66 -13.3821 1148.58C-13.4193 1159.49 587.884 1278.57 888.541 1336.74C1308.96 1171.62 2029.49 872.796 1548.29 998.495C946.801 1155.62 694.305 669.078 526.207 532.594Z" fill="#1DE9B6"/>
<path d="M-276.384 114.738C-129.211 206.097 210.669 57.8636 362.212 -27.6729C302.441 -202.058 182.564 -553.536 181.225 -564.37C179.885 -575.204 -431.634 -617.507 -737.226 -637.304C-1133.46 -420.485 -1810.56 -33.19 -1349.06 -218.563C-772.182 -450.279 -460.35 0.539195 -276.384 114.738Z" fill="#1DE9B6"/>
</svg>
